<?xml-stylesheet type="text/css" href="../../css/theme/svg.css" ?>
<svg width="800" height="600" xmlns="http://www.w3.org/2000/svg" xmlns:xlink= "http://www.w3.org/1999/xlink">
  <defs>
    <marker id="arrowhead" markerWidth="8" markerHeight="8" refX="3" refY="4" orient="auto">
      <path d="M1,1 L3,4 L1,7 L7,4 Z"></path>
    </marker>
    <marker id="arrowheadRed" markerWidth="8" markerHeight="8" refX="3" refY="4" orient="auto" fill="red">
      <path d="M1,1 L3,4 L1,7 L7,4 Z"></path>
    </marker>
  </defs>
  <circle cx="200" cy="100" r="10"></circle>
  <circle cx="100" cy="400" r="10"></circle>
  <circle cx="600" cy="200" r="10"></circle>
  <circle cx="300" cy="300" r="10"></circle>
  <circle cx="500" cy="500" r="10"></circle>
  <path class="line" d="M190,110 Q100,200 100,375" marker-end="url(#arrowhead)"></path>
  <path class="line" d="M115,400 Q200,400 282,315" marker-end="url(#arrowhead)"></path>
  <path class="line" d="M312,292 Q450,200 575,200" marker-end="url(#arrowhead)"></path>
  <path class="line" d="M510,490 Q600,350 600,225" marker-end="url(#arrowhead)"></path>
  <path class="line" d="M210,110 Q300,200 300,275" marker-end="url(#arrowhead)"></path>
  <path class="line" d="M215,100 Q450,100 580,185" marker-end="url(#arrowhead)"></path>
  <path class="line" d="M115,400 Q450,400 583,218" marker-end="url(#arrowhead)"></path>
  <path class="line" d="M215,100 Q550,50 595,175" marker-end="url(#arrowhead)"></path>
</svg>